<svg width="45" height="43" viewBox="0 0 45 43" fill="none" xmlns="http://www.w3.org/2000/svg">
<path d="M35.4751 17.8226C36.8634 15.0551 37.3875 11.9341 36.9792 8.86491C36.5763 5.7944 35.2592 2.91605 33.199 0.603871C31.8068 -0.744855 30.6517 0.285572 28.162 2.50652L28.1561 2.51178L27.0913 3.46178C26.1327 3.37419 25.1682 3.37419 24.2096 3.46178C17.8407 -2.49155 16.008 0.188246 14.5434 6.2445C13.1665 10.6441 13.5292 15.4042 15.5567 19.5445C17.1559 22.058 18.0623 21.8086 18.5255 22.157C19.0915 22.5726 19.0123 23.8749 18.7353 32.1122C18.7353 34.222 18.7946 36.0507 19.234 37.5668C17.3076 37.4797 15.6055 37.415 14.1278 37.3728L14.0624 37.3706C10.3828 37.2452 8.00703 37.1643 6.47234 36.6999C5.88892 36.6123 5.35204 36.3306 4.94837 35.9003C4.5447 35.4701 4.29779 34.9163 4.24747 34.3285C4.19715 33.7407 4.34636 33.153 4.67103 32.6604C4.9957 32.1678 5.47689 31.799 6.03692 31.6134C6.44137 31.5391 6.80178 31.3122 7.04366 30.9797C7.28554 30.6471 7.39037 30.2343 7.33649 29.8267C7.28261 29.419 7.07413 29.0476 6.75416 28.7893C6.4342 28.531 6.0272 28.4055 5.61734 28.4389C4.73618 28.5553 3.8885 28.8521 3.12726 29.311C2.36602 29.7698 1.70758 30.3806 1.19308 31.1054C0.678582 31.8301 0.319084 32.6532 0.137038 33.5232C-0.0450083 34.3932 -0.045684 35.2913 0.135054 36.1616C1.63922 43.2153 13.0709 42.863 24.0869 41.9803L24.4867 42.0872C42.0934 46.4216 52.9115 34.883 35.4751 17.8226Z" fill="#E1F0FE"/>
</svg>
